<svg xmlns="http://www.w3.org/2000/svg" xmlns:xlink="http://www.w3.org/1999/xlink" version="1.1" id="v-2" width="100%" height="100%" viewBox="159.26666259765625 451.26666259765625 632.4666748046875 233.4666748046875"><g id="v-3" class="viewport" transform="" style="cursor: grabbing; font-family: &quot;Source Sans Pro&quot;,sans-serif; line-height: 21px; -moz-user-select: none;"><g id="j_46" model-id="d778fed4-9d3c-4a20-b13d-b8482792debe" class="element basic Rect" fill="#FFFFFF" stroke="none" transform="translate(545,458.0000000000002)" style="cursor: move; font-family: &quot;Source Sans Pro&quot;,sans-serif; line-height: 21px;"><g class="rotatable" id="v-263" transform="rotate(0,120,110)" style="cursor: move; font-family: &quot;Source Sans Pro&quot;,sans-serif; line-height: 21px; -moz-user-select: none; vector-effect: non-scaling-stroke;"><g class="scalable" id="v-266" transform="scale(4.8,7.333333333333333)" style="cursor: move; font-family: &quot;Source Sans Pro&quot;,sans-serif; line-height: 21px; -moz-user-select: none; vector-effect: non-scaling-stroke;"><rect id="v-264" fill="#696973" stroke="black" width="50" height="30" rx="2" ry="2" stroke-width="9.5" stroke-dasharray="0" style="cursor: move; font-family: &quot;Source Sans Pro&quot;,sans-serif; line-height: 21px; -moz-user-select: none; vector-effect: non-scaling-stroke;"/></g><text id="v-265" y="0.8em" display="none" xml:space="preserve" font-size="10" fill="#ffffff" font-family="Arial" stroke="#000000" stroke-width="0" font-weight="400" transform="translate(120.00000762939453,110)" style="cursor: move; -moz-user-select: none; vector-effect: non-scaling-stroke;"/></g></g><g id="j_29" model-id="5007a1bf-3f74-4cd3-8b6e-ed4225823fd7" class="element basic Rect" fill="#FFFFFF" stroke="none" transform="translate(400,541.0000000000002)" style="cursor: move; font-family: &quot;Source Sans Pro&quot;,sans-serif; line-height: 21px;"><g class="rotatable" id="v-214" transform="rotate(0,45,27)" style="cursor: move; font-family: &quot;Source Sans Pro&quot;,sans-serif; line-height: 21px; -moz-user-select: none; vector-effect: non-scaling-stroke;"><g class="scalable" id="v-217" transform="scale(1.8,1.8)" style="cursor: move; font-family: &quot;Source Sans Pro&quot;,sans-serif; line-height: 21px; -moz-user-select: none; vector-effect: non-scaling-stroke;"><rect id="v-215" fill="#27ae60" stroke="black" width="50" height="30" rx="2" ry="2" stroke-width="1" stroke-dasharray="0" style="cursor: move; font-family: &quot;Source Sans Pro&quot;,sans-serif; line-height: 21px; -moz-user-select: none; vector-effect: non-scaling-stroke;"/></g><text id="v-216" y="0.8em" display="null" xml:space="preserve" font-size="15" fill="#ffffff" font-family="Arial" stroke="#000000" stroke-width="0" font-weight="400" transform="translate(26,18)" style="cursor: move; -moz-user-select: none; vector-effect: non-scaling-stroke;">Nginx</text></g></g><g id="j_34" model-id="ad954728-0262-4420-b102-7c0030df9627" class="element erd Entity" transform="translate(620,510)" style="cursor: move; font-family: &quot;Source Sans Pro&quot;,sans-serif; line-height: 21px;"><g class="rotatable" id="v-228" transform="rotate(0,45,18)" style="cursor: move; font-family: &quot;Source Sans Pro&quot;,sans-serif; line-height: 21px; -moz-user-select: none; vector-effect: non-scaling-stroke;"><g class="scalable" id="v-232" transform="scale(0.9,0.6)" style="cursor: move; font-family: &quot;Source Sans Pro&quot;,sans-serif; line-height: 21px; -moz-user-select: none; vector-effect: non-scaling-stroke;"><polygon class="outer" id="v-229" fill="#5f6be7" stroke="#27ae60" stroke-width="2" points="100,0 100,60 0,60 0,0" stroke-dasharray="0" style="cursor: move; font-family: &quot;Source Sans Pro&quot;,sans-serif; line-height: 21px; -moz-user-select: none; vector-effect: non-scaling-stroke;"/><polygon class="inner" id="v-230" fill="#2ECC71" stroke="#27AE60" stroke-width="2" points="95,5 95,55 5,55 5,5" display="none" style="cursor: move; font-family: &quot;Source Sans Pro&quot;,sans-serif; line-height: 21px; -moz-user-select: none; vector-effect: non-scaling-stroke;"/></g><text id="v-231" y="0.8em" display="null" xml:space="preserve" font-family="Arial" font-size="14" font-weight="400" fill="#000000" stroke="#000000" stroke-width="0" transform="translate(26.5,10)" style="cursor: move; -moz-user-select: none; vector-effect: non-scaling-stroke;">Web1</text></g></g><g id="j_37" model-id="cc729072-ab31-460c-8493-5c68b8a40308" class="element erd Entity" transform="translate(620,590)" style="cursor: move; font-family: &quot;Source Sans Pro&quot;,sans-serif; line-height: 21px;"><g class="rotatable" id="v-244" transform="rotate(0,45,18)" style="cursor: move; font-family: &quot;Source Sans Pro&quot;,sans-serif; line-height: 21px; -moz-user-select: none; vector-effect: non-scaling-stroke;"><g class="scalable" id="v-248" transform="scale(0.9,0.6)" style="cursor: move; font-family: &quot;Source Sans Pro&quot;,sans-serif; line-height: 21px; -moz-user-select: none; vector-effect: non-scaling-stroke;"><polygon class="outer" id="v-245" fill="#7066e6" stroke="#27ae60" stroke-width="2" points="100,0 100,60 0,60 0,0" stroke-dasharray="0" style="cursor: move; font-family: &quot;Source Sans Pro&quot;,sans-serif; line-height: 21px; -moz-user-select: none; vector-effect: non-scaling-stroke;"/><polygon class="inner" id="v-246" fill="#2ECC71" stroke="#27AE60" stroke-width="2" points="95,5 95,55 5,55 5,5" display="none" style="cursor: move; font-family: &quot;Source Sans Pro&quot;,sans-serif; line-height: 21px; -moz-user-select: none; vector-effect: non-scaling-stroke;"/></g><text id="v-247" y="0.8em" display="null" xml:space="preserve" font-family="Arial" font-size="14" font-weight="400" fill="#000000" stroke="#000000" stroke-width="0" transform="translate(26.5,10)" style="cursor: move; -moz-user-select: none; vector-effect: non-scaling-stroke;">Web2</text></g></g><g id="j_61" model-id="d2919104-19aa-4f30-94b0-5a1a092ea761" class="link" style="pointer-events: visiblepainted; cursor: grabbing; font-family: &quot;Source Sans Pro&quot;,sans-serif; line-height: 21px;"><path class="connection" stroke="black" id="v-294" d="M 491 570 530 570 530 570" style="cursor: grabbing; font-family: &quot;Source Sans Pro&quot;,sans-serif; line-height: 21px; fill: none; stroke-linejoin: round;"/><path class="marker-source" fill="black" stroke="black" id="v-295" d="M 10 0 L 0 5 L 10 10 z" transform="translate(491,569.9949951171875) scale(0.001,0.001) rotate(0)" style="cursor: grabbing; font-family: &quot;Source Sans Pro&quot;,sans-serif; line-height: 21px; vector-effect: non-scaling-stroke;"/><path class="marker-target" fill="black" stroke="black" id="v-296" d="M 10 0 L 0 5 L 10 10 z" transform="translate(540,575) scale(1,1) rotate(-180)" style="cursor: grabbing; font-family: &quot;Source Sans Pro&quot;,sans-serif; line-height: 21px; vector-effect: non-scaling-stroke;"/><path class="connection-wrap" id="v-297" d="M 491 570 530 570 530 570" style="cursor: move; font-family: &quot;Source Sans Pro&quot;,sans-serif; line-height: 21px; opacity: 0; fill: none; stroke: rgb(0, 0, 0); stroke-linecap: round; stroke-linejoin: round; stroke-width: 15;"/><g class="labels" id="v-298" style="cursor: grabbing; font-family: &quot;Source Sans Pro&quot;,sans-serif; line-height: 21px;"/><g class="marker-vertices" id="v-299" style="cursor: move; font-family: &quot;Source Sans Pro&quot;,sans-serif; line-height: 21px; opacity: 0;"><g class="marker-vertex-group" transform="translate(530, 570)" id="v-377" style="cursor: move; font-family: &quot;Source Sans Pro&quot;,sans-serif; line-height: 21px;"><circle class="marker-vertex" idx="0" r="10" style="cursor: move; font-family: &quot;Source Sans Pro&quot;,sans-serif; line-height: 21px; fill: rgb(26, 188, 156);"/><path class="marker-vertex-remove-area" idx="0" d="M16,5.333c-7.732,0-14,4.701-14,10.5c0,1.982,0.741,3.833,2.016,5.414L2,25.667l5.613-1.441c2.339,1.317,5.237,2.107,8.387,2.107c7.732,0,14-4.701,14-10.5C30,10.034,23.732,5.333,16,5.333z" transform="translate(5, -33)" style="cursor: pointer; font-family: &quot;Source Sans Pro&quot;,sans-serif; line-height: 21px; opacity: 0.1;"/><path class="marker-vertex-remove" idx="0" transform="scale(.8) translate(9.5, -37)" d="M24.778,21.419 19.276,15.917 24.777,10.415 21.949,7.585 16.447,13.087 10.945,7.585 8.117,10.415 13.618,15.917 8.116,21.419 10.946,24.248 16.447,18.746 21.948,24.248z" style="cursor: pointer; font-family: &quot;Source Sans Pro&quot;,sans-serif; line-height: 21px; opacity: 0.1; fill: rgb(255, 255, 255);"><title style="cursor: pointer; font-family: &quot;Source Sans Pro&quot;,sans-serif; line-height: 21px; fill: rgb(255, 255, 255);">Remove vertex.</title></path></g></g><g class="marker-arrowheads" id="v-300" style="cursor: grab; font-family: &quot;Source Sans Pro&quot;,sans-serif; line-height: 21px; opacity: 0;"><g class="marker-arrowhead-group marker-arrowhead-group-source" id="v-303" transform="translate(491,563.5) scale(0.5,0.5) rotate(0)" style="cursor: grab; font-family: &quot;Source Sans Pro&quot;,sans-serif; line-height: 21px;"><path class="marker-arrowhead" end="source" d="M 26 0 L 0 13 L 26 26 z" style="cursor: grab; font-family: &quot;Source Sans Pro&quot;,sans-serif; line-height: 21px; fill: rgb(26, 188, 156);"/></g><g class="marker-arrowhead-group marker-arrowhead-group-target" id="v-304" transform="translate(540,576.5) scale(0.5,0.5) rotate(-180)" style="cursor: grab; font-family: &quot;Source Sans Pro&quot;,sans-serif; line-height: 21px;"><path class="marker-arrowhead" end="target" d="M 26 0 L 0 13 L 26 26 z" style="cursor: grab; font-family: &quot;Source Sans Pro&quot;,sans-serif; line-height: 21px; fill: rgb(26, 188, 156);"/></g></g><g class="link-tools" id="v-301" style="cursor: pointer; font-family: &quot;Source Sans Pro&quot;,sans-serif; line-height: 21px; opacity: 0;"><g class="link-tool" id="v-302" transform="translate(511, 570) scale(.5)" style="cursor: pointer; font-family: &quot;Source Sans Pro&quot;,sans-serif; line-height: 21px;"><g class="tool-remove" event="remove" style="cursor: pointer; font-family: &quot;Source Sans Pro&quot;,sans-serif; line-height: 21px;"><circle r="11" style="cursor: pointer; font-family: &quot;Source Sans Pro&quot;,sans-serif; line-height: 21px; fill: rgb(255, 0, 0);"/><path transform="scale(.8) translate(-16, -16)" d="M24.778,21.419 19.276,15.917 24.777,10.415 21.949,7.585 16.447,13.087 10.945,7.585 8.117,10.415 13.618,15.917 8.116,21.419 10.946,24.248 16.447,18.746 21.948,24.248z" style="cursor: pointer; font-family: &quot;Source Sans Pro&quot;,sans-serif; line-height: 21px; fill: rgb(255, 255, 255);"/><title style="cursor: pointer; font-family: &quot;Source Sans Pro&quot;,sans-serif; line-height: 21px;">Remove link.</title></g><g class="tool-options" event="link:options" id="v-316" style="cursor: pointer; display: block; font-family: &quot;Source Sans Pro&quot;,sans-serif; height: 0px; line-height: 21px; width: 0px;"><circle r="11" transform="translate(25)" style="cursor: pointer; font-family: &quot;Source Sans Pro&quot;,sans-serif; line-height: 21px;"/><path fill="white" transform="scale(.55) translate(29, -16)" d="M31.229,17.736c0.064-0.571,0.104-1.148,0.104-1.736s-0.04-1.166-0.104-1.737l-4.377-1.557c-0.218-0.716-0.504-1.401-0.851-2.05l1.993-4.192c-0.725-0.91-1.549-1.734-2.458-2.459l-4.193,1.994c-0.647-0.347-1.334-0.632-2.049-0.849l-1.558-4.378C17.165,0.708,16.588,0.667,16,0.667s-1.166,0.041-1.737,0.105L12.707,5.15c-0.716,0.217-1.401,0.502-2.05,0.849L6.464,4.005C5.554,4.73,4.73,5.554,4.005,6.464l1.994,4.192c-0.347,0.648-0.632,1.334-0.849,2.05l-4.378,1.557C0.708,14.834,0.667,15.412,0.667,16s0.041,1.165,0.105,1.736l4.378,1.558c0.217,0.715,0.502,1.401,0.849,2.049l-1.994,4.193c0.725,0.909,1.549,1.733,2.459,2.458l4.192-1.993c0.648,0.347,1.334,0.633,2.05,0.851l1.557,4.377c0.571,0.064,1.148,0.104,1.737,0.104c0.588,0,1.165-0.04,1.736-0.104l1.558-4.377c0.715-0.218,1.399-0.504,2.049-0.851l4.193,1.993c0.909-0.725,1.733-1.549,2.458-2.458l-1.993-4.193c0.347-0.647,0.633-1.334,0.851-2.049L31.229,17.736zM16,20.871c-2.69,0-4.872-2.182-4.872-4.871c0-2.69,2.182-4.872,4.872-4.872c2.689,0,4.871,2.182,4.871,4.872C20.871,18.689,18.689,20.871,16,20.871z" style="cursor: pointer; font-family: &quot;Source Sans Pro&quot;,sans-serif; line-height: 21px;"/><title style="cursor: pointer; font-family: &quot;Source Sans Pro&quot;,sans-serif; line-height: 21px;">Link options.</title></g></g></g></g><g id="j_77" model-id="28c739cc-56b1-404d-962a-9d3ad50f6a76" class="element basic Rect" fill="#FFFFFF" stroke="none" transform="translate(160,546)" style="cursor: move; font-family: &quot;Source Sans Pro&quot;,sans-serif; line-height: 21px;"><g class="rotatable" id="v-405" transform="rotate(0,45,27)" style="cursor: move; font-family: &quot;Source Sans Pro&quot;,sans-serif; line-height: 21px; -moz-user-select: none; vector-effect: non-scaling-stroke;"><g class="scalable" id="v-408" transform="scale(1.8,1.8)" style="cursor: move; font-family: &quot;Source Sans Pro&quot;,sans-serif; line-height: 21px; -moz-user-select: none; vector-effect: non-scaling-stroke;"><rect id="v-406" fill="#170909" stroke="black" width="50" height="30" rx="2" ry="2" stroke-width="1" stroke-dasharray="0" style="cursor: move; font-family: &quot;Source Sans Pro&quot;,sans-serif; line-height: 21px; -moz-user-select: none; vector-effect: non-scaling-stroke;"/></g><text id="v-407" y="0.8em" display="null" xml:space="preserve" font-size="15" fill="#ffffff" font-family="Arial" stroke="#000000" stroke-width="0" font-weight="400" transform="translate(26.5,18)" style="cursor: move; -moz-user-select: none; vector-effect: non-scaling-stroke;">Client</text></g></g><g id="j_81" model-id="619f416a-29af-458e-a67e-41c9df484064" class="link" style="pointer-events: visiblepainted; cursor: grabbing; font-family: &quot;Source Sans Pro&quot;,sans-serif; line-height: 21px;"><path class="connection" stroke="black" id="v-413" d="M 251 569 390 569" style="cursor: grabbing; font-family: &quot;Source Sans Pro&quot;,sans-serif; line-height: 21px; fill: none; stroke-linejoin: round;"/><path class="marker-source" fill="black" stroke="black" id="v-414" d="M 10 0 L 0 5 L 10 10 z" transform="translate(251,568.9949951171875) scale(0.001,0.001) rotate(0)" style="cursor: grabbing; font-family: &quot;Source Sans Pro&quot;,sans-serif; line-height: 21px; vector-effect: non-scaling-stroke;"/><path class="marker-target" fill="black" stroke="black" id="v-415" d="M 10 0 L 0 5 L 10 10 z" transform="translate(400,574) scale(1,1) rotate(-180)" style="cursor: grabbing; font-family: &quot;Source Sans Pro&quot;,sans-serif; line-height: 21px; vector-effect: non-scaling-stroke;"/><path class="connection-wrap" id="v-416" d="M 251 569 390 569" style="cursor: move; font-family: &quot;Source Sans Pro&quot;,sans-serif; line-height: 21px; opacity: 0; fill: none; stroke: rgb(0, 0, 0); stroke-linecap: round; stroke-linejoin: round; stroke-width: 15;"/><g class="labels" id="v-417" style="cursor: grabbing; font-family: &quot;Source Sans Pro&quot;,sans-serif; line-height: 21px;"/><g class="marker-vertices" id="v-418" style="cursor: move; font-family: &quot;Source Sans Pro&quot;,sans-serif; line-height: 21px; opacity: 0;"/><g class="marker-arrowheads" id="v-419" style="cursor: grab; font-family: &quot;Source Sans Pro&quot;,sans-serif; line-height: 21px; opacity: 0;"><g class="marker-arrowhead-group marker-arrowhead-group-source" id="v-422" transform="translate(251,556) scale(1,1) rotate(0)" style="cursor: grab; font-family: &quot;Source Sans Pro&quot;,sans-serif; line-height: 21px;"><path class="marker-arrowhead" end="source" d="M 26 0 L 0 13 L 26 26 z" style="cursor: grab; font-family: &quot;Source Sans Pro&quot;,sans-serif; line-height: 21px; fill: rgb(26, 188, 156);"/></g><g class="marker-arrowhead-group marker-arrowhead-group-target" id="v-423" transform="translate(400,582) scale(1,1) rotate(-180)" style="cursor: grab; font-family: &quot;Source Sans Pro&quot;,sans-serif; line-height: 21px;"><path class="marker-arrowhead" end="target" d="M 26 0 L 0 13 L 26 26 z" style="cursor: grab; font-family: &quot;Source Sans Pro&quot;,sans-serif; line-height: 21px; fill: rgb(26, 188, 156);"/></g></g><g class="link-tools" id="v-420" style="cursor: pointer; font-family: &quot;Source Sans Pro&quot;,sans-serif; line-height: 21px; opacity: 0;"><g class="link-tool" id="v-421" transform="translate(291, 569) " style="cursor: pointer; font-family: &quot;Source Sans Pro&quot;,sans-serif; line-height: 21px;"><g class="tool-remove" event="remove" style="cursor: pointer; font-family: &quot;Source Sans Pro&quot;,sans-serif; line-height: 21px;"><circle r="11" style="cursor: pointer; font-family: &quot;Source Sans Pro&quot;,sans-serif; line-height: 21px; fill: rgb(255, 0, 0);"/><path transform="scale(.8) translate(-16, -16)" d="M24.778,21.419 19.276,15.917 24.777,10.415 21.949,7.585 16.447,13.087 10.945,7.585 8.117,10.415 13.618,15.917 8.116,21.419 10.946,24.248 16.447,18.746 21.948,24.248z" style="cursor: pointer; font-family: &quot;Source Sans Pro&quot;,sans-serif; line-height: 21px; fill: rgb(255, 255, 255);"/><title style="cursor: pointer; font-family: &quot;Source Sans Pro&quot;,sans-serif; line-height: 21px;">Remove link.</title></g><g class="tool-options" event="link:options" style="cursor: pointer; display: block; font-family: &quot;Source Sans Pro&quot;,sans-serif; height: 0px; line-height: 21px; width: 0px;"><circle r="11" transform="translate(25)" style="cursor: pointer; font-family: &quot;Source Sans Pro&quot;,sans-serif; line-height: 21px;"/><path fill="white" transform="scale(.55) translate(29, -16)" d="M31.229,17.736c0.064-0.571,0.104-1.148,0.104-1.736s-0.04-1.166-0.104-1.737l-4.377-1.557c-0.218-0.716-0.504-1.401-0.851-2.05l1.993-4.192c-0.725-0.91-1.549-1.734-2.458-2.459l-4.193,1.994c-0.647-0.347-1.334-0.632-2.049-0.849l-1.558-4.378C17.165,0.708,16.588,0.667,16,0.667s-1.166,0.041-1.737,0.105L12.707,5.15c-0.716,0.217-1.401,0.502-2.05,0.849L6.464,4.005C5.554,4.73,4.73,5.554,4.005,6.464l1.994,4.192c-0.347,0.648-0.632,1.334-0.849,2.05l-4.378,1.557C0.708,14.834,0.667,15.412,0.667,16s0.041,1.165,0.105,1.736l4.378,1.558c0.217,0.715,0.502,1.401,0.849,2.049l-1.994,4.193c0.725,0.909,1.549,1.733,2.459,2.458l4.192-1.993c0.648,0.347,1.334,0.633,2.05,0.851l1.557,4.377c0.571,0.064,1.148,0.104,1.737,0.104c0.588,0,1.165-0.04,1.736-0.104l1.558-4.377c0.715-0.218,1.399-0.504,2.049-0.851l4.193,1.993c0.909-0.725,1.733-1.549,2.458-2.458l-1.993-4.193c0.347-0.647,0.633-1.334,0.851-2.049L31.229,17.736zM16,20.871c-2.69,0-4.872-2.182-4.872-4.871c0-2.69,2.182-4.872,4.872-4.872c2.689,0,4.871,2.182,4.871,4.872C20.871,18.689,18.689,20.871,16,20.871z" style="cursor: pointer; font-family: &quot;Source Sans Pro&quot;,sans-serif; line-height: 21px;"/><title style="cursor: pointer; font-family: &quot;Source Sans Pro&quot;,sans-serif; line-height: 21px;">Link options.</title></g></g></g></g></g><defs id="v-4" style="cursor: grabbing; font-family: &quot;Source Sans Pro&quot;,sans-serif; line-height: 21px;"/></svg>